<svg width="25" height="24" viewBox="0 0 25 24" fill="none" xmlns="http://www.w3.org/2000/svg">
<path d="M24.5 12C24.5 18.6274 19.1274 24 12.5 24C5.87258 24 0.5 18.6274 0.5 12C0.5 5.37258 5.87258 0 12.5 0C19.1274 0 24.5 5.37258 24.5 12ZM4.0402 12C4.0402 16.6722 7.82778 20.4598 12.5 20.4598C17.1722 20.4598 20.9598 16.6722 20.9598 12C20.9598 7.32778 17.1722 3.5402 12.5 3.5402C7.82778 3.5402 4.0402 7.32778 4.0402 12Z" fill="#2F50C1" fill-opacity="0.4"/>
<path d="M22.73 12C23.7075 12 24.5134 11.2033 24.3697 10.2364C24.2257 9.26723 23.9632 8.31713 23.5866 7.4078C22.9835 5.95189 22.0996 4.62902 20.9853 3.51472C19.871 2.40042 18.5481 1.5165 17.0922 0.913445C16.1829 0.536789 15.2328 0.274302 14.2636 0.130302C13.2967 -0.0133649 12.5 0.792456 12.5 1.77C12.5 2.74754 13.3009 3.52145 14.2571 3.72449C14.7624 3.83177 15.258 3.98536 15.7375 4.18398C16.7639 4.60913 17.6965 5.23229 18.4821 6.01788C19.2677 6.80346 19.8909 7.73608 20.316 8.7625C20.5146 9.24201 20.6682 9.7376 20.7755 10.2429C20.9785 11.1991 21.7525 12 22.73 12Z" fill="#2F50C1"/>
</svg>
