<svg width="26" height="25" viewBox="0 0 26 25" fill="none" xmlns="http://www.w3.org/2000/svg">
<path d="M6.81111 13.3037L6.66666 17.5212L5.07771 16.4388L3.48876 17.336L3.81631 12.8154L1.56615 12.5061V21.9829L9.85472 22.9248V13.6414L6.81111 13.3037ZM20.6091 1.21055C20.6946 1.19428 20.7821 1.21055 20.8553 1.25531C20.9794 1.30618 21.0669 1.42825 21.0689 1.5727L21.1401 11.3363L24.7799 11.8144C24.8653 11.7981 24.9528 11.8144 25.026 11.8592C25.1501 11.91 25.2376 12.0321 25.2397 12.1765L25.3109 22.1843C25.317 22.3063 25.2559 22.4284 25.144 22.4956L21.0567 24.9329C20.9997 24.9756 20.9265 25.0021 20.8492 25.0021C20.8309 25.0021 20.8105 25 20.7943 24.998L10.1884 23.818C10.1619 23.8159 10.1375 23.8119 10.1131 23.8058L1.02497 22.638C0.841868 22.6298 0.697419 22.4772 0.697419 22.2941V12.1155C0.69335 11.9792 0.770661 11.8469 0.902904 11.79L5.68806 9.68427V2.69371C5.68399 2.5574 5.7613 2.42515 5.89354 2.36819L11.2138 0.0285057C11.2687 0.00409167 11.3318 -0.00608086 11.3969 0.00205716L20.6091 1.21055ZM20.8105 11.9873L17.6123 13.8957L20.7882 14.3006L23.8297 12.3841L20.8105 11.9873ZM5.68806 11.32V10.437L2.29451 11.9283L4.24153 12.1765L5.68806 11.32ZM17.0223 4.44135V13.4461L20.0761 11.6232L20.4484 11.3078L20.3833 2.32343L17.0223 4.44135ZM16.1474 13.6678V4.35386L11.8079 3.77606L11.6593 8.09939L10.0704 7.01703L8.48143 7.91425L8.80899 3.39358L6.37572 3.0823V12.559L16.1474 13.6678ZM15.6164 1.25124L12.2799 3.14537L16.6195 3.69875L19.661 1.78225L15.6164 1.25124ZM9.23624 2.75474L12.4711 0.836205L11.405 0.695824L7.28921 2.5045L9.23624 2.75474ZM21.191 15.0432V24.0479L24.6191 22.0032L24.552 12.9252L21.191 15.0432ZM20.3161 24.2696V14.9557L15.9766 14.3779L15.828 18.7012L14.2391 17.6188L12.6501 18.5161L12.9777 13.9954L10.7275 13.7757V23.2524L20.3161 24.2696Z" fill="#A7A3B3"/>
</svg>
