<svg width="26" height="25" viewBox="0 0 26 25" fill="none" xmlns="http://www.w3.org/2000/svg">
<g clip-path="url(#clip0_1_495)">
<path d="M16.1474 13.6678V4.35386L11.8079 3.77606L11.6593 8.09939L10.0704 7.01703L8.48143 7.91425L8.80899 3.39358L6.37572 3.0823V12.559L16.1474 13.6678Z" fill="#2F50C1"/>
<path d="M20.3161 24.2696V14.9557L15.9766 14.3779L15.828 18.7012L14.2391 17.6188L12.6501 18.5161L12.9777 13.9954L10.7275 13.7757V23.2524L20.3161 24.2696Z" fill="#2F50C1"/>
<path d="M6.81111 13.3037L6.66666 17.5212L5.07771 16.4388L3.48876 17.336L3.81631 12.8154L1.56615 12.5061V21.9829L9.85472 22.9248V13.6414L6.81111 13.3037Z" fill="#2F50C1"/>
<path d="M20.8105 11.9873L17.6123 13.8957L20.7882 14.3006L23.8297 12.3841L20.8105 11.9873Z" fill="#2F50C1"/>
<path d="M21.191 15.0432V24.0479L24.6191 22.0032L24.552 12.9252L21.191 15.0432Z" fill="#2F50C1"/>
<path d="M5.68806 11.32V10.437L2.29451 11.9283L4.24153 12.1765L5.68806 11.32Z" fill="#2F50C1"/>
<path d="M17.0223 4.44135V13.4461L20.0761 11.6232L20.4484 11.3078L20.3833 2.32343L17.0223 4.44135Z" fill="#2F50C1"/>
<path d="M15.6164 1.25124L12.2799 3.14537L16.6195 3.69875L19.661 1.78225L15.6164 1.25124Z" fill="#2F50C1"/>
<path d="M9.23624 2.75474L12.4711 0.836205L11.405 0.695824L7.28921 2.5045L9.23624 2.75474Z" fill="#2F50C1"/>
</g>
<defs>
<clipPath id="clip0_1_495">
<rect width="24.6134" height="25" fill="white" transform="translate(0.693359)"/>
</clipPath>
</defs>
</svg>
